<?xml version="1.0" encoding="utf-8"?>
<!-- Generator: Adobe Illustrator 16.0.0, SVG Export Plug-In . SVG Version: 6.00 Build 0)  -->
<!DOCTYPE svg PUBLIC "-//W3C//DTD SVG 1.1//EN" "http://www.w3.org/Graphics/SVG/1.1/DTD/svg11.dtd">
<svg version="1.1" id="Layer_1" xmlns="http://www.w3.org/2000/svg" xmlns:xlink="http://www.w3.org/1999/xlink" x="0px" y="0px"
	 width="595.279px" height="841.89px" viewBox="0 0 595.279 841.89" enable-background="new 0 0 595.279 841.89"
	 xml:space="preserve">
<g id="_x36_5Q3bf_1_">
	<g>
		<path fill="#39B54A" d="M366.444,253.931c8.551,1.407,17.225,2.372,25.664,4.303c21.816,4.964,41.51,14.535,59.093,28.436
			c18.921,14.977,33.636,33.291,43.826,55.217c15.17,32.656,17.735,66.443,9.75,101.416c-6.274,27.442-15.666,53.838-27.153,79.378
			c-11.694,26.009-23.789,51.908-37.097,77.09c-15.749,29.787-32.753,58.913-49.757,88.011
			c-10.26,17.569-21.541,34.531-32.365,51.77c-0.305,0.497-0.746,0.938-1.463,1.903c-4.275-6.647-8.439-12.825-12.301-19.224
			c-14.163-23.251-28.768-46.254-42.172-69.946c-15.197-26.836-29.829-54.031-43.674-81.585
			c-10.646-21.182-20.382-42.889-29.277-64.87c-11.17-27.526-20.865-55.659-23.885-85.557c-1.655-16.494-0.469-32.877,3.337-49.067
			c5.682-24.079,16.507-45.592,32.739-64.181c24.354-27.83,54.707-45.178,91.473-50.86c4.854-0.745,9.722-1.489,14.577-2.234
			C353.977,253.931,360.211,253.931,366.444,253.931z M357.384,284.408c-67.229-0.276-121.936,54.307-122.198,121.909
			c-0.303,66.911,54.473,121.743,121.797,121.936c67.064,0.193,121.923-54.527,122.02-121.715
			C479.099,339.35,424.654,284.684,357.384,284.408z"/>
		<path fill="#FFFFFF" d="M357.384,284.408c67.271,0.276,121.701,54.941,121.605,122.129
			c-0.097,67.159-54.955,121.908-122.02,121.715c-67.325-0.192-122.101-55.024-121.797-121.936
			C235.462,338.715,290.169,284.16,357.384,284.408z M357.246,345.638c-33.952-0.055-60.844,26.699-60.927,60.596
			c-0.11,33.677,27.057,61.01,60.65,61.064c33.636,0.056,60.886-27.112,60.914-60.761
			C417.938,372.613,391.13,345.693,357.246,345.638z"/>
		<path fill="#39B54A" d="M357.246,345.638c33.884,0.055,60.692,26.975,60.638,60.899c-0.042,33.648-27.292,60.844-60.914,60.788
			c-33.594-0.055-60.761-27.415-60.65-61.064C296.416,372.337,323.28,345.583,357.246,345.638z"/>
	</g>
</g>
</svg>
